<svg xmlns="http://www.w3.org/2000/svg" viewBox="0 0 32.34 48.14"><defs><style>.a9c9e0e0-c5c4-48cd-84a0-d6c9b04d109a{fill:#ed6d1f;}.e4b913d8-ff46-4db0-9df3-de3611863d27{fill:#f08437;}</style></defs><g id="ee22c9db-5240-4bef-ab08-38b785a2571c" data-name="圖層 2"><g id="a0f77e06-1491-4ce0-9070-9562b9a712a0" data-name="圖層 1"><path class="a9c9e0e0-c5c4-48cd-84a0-d6c9b04d109a" d="M25.8,38.13a10.41,10.41,0,0,1-4.71,2.15,17.21,17.21,0,0,1-4.86.17,31.48,31.48,0,0,1-3.73-.6c-1.3-.28-2.59-.61-3.88-.91l-6.4-1.46-.29-.06-1.3-.29L.1,39.46a3.41,3.41,0,0,0,.45,2.67,3.59,3.59,0,0,0,2.22,1.6l18.84,4.32a3.4,3.4,0,0,0,2.67-.46,3.56,3.56,0,0,0,1.6-2.21L28.27,35A10.11,10.11,0,0,1,25.8,38.13Z"/><path class="e4b913d8-ff46-4db0-9df3-de3611863d27" d="M32.19,14.63a8.64,8.64,0,0,0-1.1-3.16L25,1.66A3.61,3.61,0,0,0,20,.53L10.23,6.67A8.76,8.76,0,0,0,7.86,9a8.45,8.45,0,0,0-1.43,3l-5,21.85,1.27.28,6.27,1.43a47,47,0,0,0,8.71,1.59A9.3,9.3,0,0,0,23.06,36,7.44,7.44,0,0,0,26,31.86v0a7.6,7.6,0,0,0-.4-6.33,10.19,10.19,0,0,0-6.78-4.44l.72-3.26a13.55,13.55,0,0,1,9,6,10.12,10.12,0,0,1,1.3,4.48L32.17,18A8.52,8.52,0,0,0,32.19,14.63ZM18.57,30.39l-.71,3.16L15.19,33l-.73,2.89-3.15-.71L12,32.24,11.09,32,3.67,30.37l.7-3.1,9.8-9-1.1,4.95L7.76,28l4,.91.94.21,2.72-12.15,3.15.7L15.89,29.79Zm4.28-18.88a2.59,2.59,0,0,1-1.19,1.67A2.68,2.68,0,0,1,18,12.33a2.68,2.68,0,0,1,.85-3.69,2.68,2.68,0,0,1,4,2.87Z"/></g></g></svg>