<svg xmlns="http://www.w3.org/2000/svg" viewBox="0 0 78.64 43.08"><defs><style>.b8f45c6c-b8e6-4e21-b05b-a53b3e4c1865{fill:#f08437;}.a35c1f41-81e8-4619-8ca3-f4ce91cf817b{fill:#4d4d4d;}.b8ad6522-1c60-4caa-848f-e7d50b228281{fill:#727171;}</style></defs><g id="a5002b29-9902-4fe4-b6f4-9e8dd283fa96" data-name="圖層 2"><g id="ff355c89-22aa-4d49-8ab8-544438ecdb01" data-name="圖層 1"><path class="b8f45c6c-b8e6-4e21-b05b-a53b3e4c1865" d="M47.67,24.08H39.29q-3.81,0-5.28,1.36a5.34,5.34,0,0,0-1.47,4.11V43.08H38.3V31.42A3.24,3.24,0,0,1,39,29.19a3.76,3.76,0,0,1,2.8-.78H45c1.51,0,2.48.24,2.92.72a3.37,3.37,0,0,1,.65,2.29V43.08h5.74V29.55a5.49,5.49,0,0,0-1.41-4.06Q51.51,24.08,47.67,24.08Z"/><polygon class="a35c1f41-81e8-4619-8ca3-f4ce91cf817b" points="16.02 0 16.02 7.27 16.02 9.08 5.73 9.08 5.73 0 0.03 0 0 7.28 0.03 14.21 5.73 14.21 16.02 14.21 16.02 15.53 16.02 19 21.79 19 21.79 13.53 21.79 5.47 21.79 0 16.02 0"/><path class="b8f45c6c-b8e6-4e21-b05b-a53b3e4c1865" d="M63.35,29.19a3.78,3.78,0,0,1,2.8-.78H78.64V24.08h-15q-3.8,0-5.28,1.36a5.34,5.34,0,0,0-1.47,4.11v8.06a5.31,5.31,0,0,0,1.47,4.11q1.49,1.37,5.28,1.36h15V32.53h-10v4.28h4.28v1.95H66.15a3.73,3.73,0,0,1-2.8-.79,3.21,3.21,0,0,1-.7-2.23V31.42A3.24,3.24,0,0,1,63.35,29.19Z"/><path class="b8f45c6c-b8e6-4e21-b05b-a53b3e4c1865" d="M15,24.08H0v19H15q3.8,0,5.27-1.36a5.32,5.32,0,0,0,1.48-4.11V29.55a5.35,5.35,0,0,0-1.48-4.11Q18.81,24.08,15,24.08Zm1,11.66A3.21,3.21,0,0,1,15.28,38a3.7,3.7,0,0,1-2.8.79H6.53a.83.83,0,0,1-.83-.83v-8.7a.83.83,0,0,1,.83-.82h6a3.75,3.75,0,0,1,2.8.78A3.24,3.24,0,0,1,16,31.42Z"/><circle class="b8f45c6c-b8e6-4e21-b05b-a53b3e4c1865" cx="8.99" cy="31.8" r="1.23"/><polygon class="b8f45c6c-b8e6-4e21-b05b-a53b3e4c1865" points="24.31 30.49 24.31 43.06 30.01 43.06 30.05 35.73 30.05 30.49 24.31 30.49"/><rect class="b8f45c6c-b8e6-4e21-b05b-a53b3e4c1865" x="24.31" y="24.06" width="5.73" height="4.85"/><path class="b8ad6522-1c60-4caa-848f-e7d50b228281" d="M30.18,3.26H29.4V1.65h2.71V1.36H29.72V.8h5.62v.56h-2.4v.29H35.7V3.26h-.82l-.15.5a13,13,0,0,0-1.65-.39l.16-.48a9.67,9.67,0,0,1,1.61.34v-1h-.39l.26.37a6.84,6.84,0,0,1-1.27.34l-.27-.4a6.89,6.89,0,0,0,1-.31H32.94V3.69h-.83V2.2H30.74a8.86,8.86,0,0,1,1.12.3L31.63,3A8.74,8.74,0,0,0,30.4,2.6l.2-.4h-.39v1c.44,0,1-.14,1.65-.23l0,.48-1.51.35Zm4.57,3.23c.37,0,.43-.11.48-.71a2.22,2.22,0,0,0,.71.26c-.1.86-.34,1.09-1.12,1.09h-1.5c-1,0-1.25-.2-1.25-.94v0H30.88v.31h-.82V3.87h5V6.16H32.88v0c0,.25.09.3.52.3Zm-3.87-2v.33h1.19V4.44Zm1.19,1.15V5.27H30.88v.32Zm2.11-1.15h-1.3v.33h1.3Zm0,1.15V5.27h-1.3v.32Z"/><path class="b8ad6522-1c60-4caa-848f-e7d50b228281" d="M49.4,4.49H46.62V6.21c0,.48-.11.72-.44.86a4.66,4.66,0,0,1-1.5.15,3.48,3.48,0,0,0-.36-.88c.5,0,1.06,0,1.21,0s.2-.05.2-.17V4.49H42.9V3.64h2.83v-1a9,9,0,0,0,1.39-.84H43.61V1h4.46l.2,0,.64.49a10.45,10.45,0,0,1-2.29,1.69v.55H49.4Z"/><path class="b8ad6522-1c60-4caa-848f-e7d50b228281" d="M62.93,2H60.84l.67.13c-.14.26-.3.51-.44.73H62.6V6.44c0,.37-.09.54-.35.64A3.82,3.82,0,0,1,61,7.19a2.52,2.52,0,0,0-.23-.63c.34,0,.75,0,.86,0s.16,0,.16-.14V3.5H60.71v.19c0,.13,0,.2.13.2h.35a1.86,1.86,0,0,0,.42-.05,5.25,5.25,0,0,0,0,.57,1.87,1.87,0,0,1-.45,0h-.57c-.58,0-.68-.27-.68-.78V3.5h-.51a1.26,1.26,0,0,1-.93,1.1h2.59V6.34H59v.3h-.71v-2l-.27.06a1.54,1.54,0,0,0-.34-.53v3h-.81V2.81h1.47c-.08-.21-.21-.49-.32-.71L58.53,2h-2V1.23h2.82c0-.19-.11-.37-.16-.54l.82-.2c.08.23.18.5.25.74h2.63Zm-5.21,2.2c.67-.11.9-.31,1-.65h-1Zm2.56-1.34A6.86,6.86,0,0,0,60.64,2h-1.8c.13.23.28.51.36.7l-.46.16ZM59,5.19v.57h1.39V5.19Z"/><path class="b8ad6522-1c60-4caa-848f-e7d50b228281" d="M76.16,2a3.39,3.39,0,0,1-.72,1,5.84,5.84,0,0,0,1.32.43,3.16,3.16,0,0,0-.54.72,5.18,5.18,0,0,1-1.46-.62,5.52,5.52,0,0,1-1.46.6,3.06,3.06,0,0,0-.2-.3A8,8,0,0,1,72.75,5l-.57-.27c.08-.26.16-.62.23-1H72V6.31c0,.38-.06.61-.31.74a2.07,2.07,0,0,1-1,.15,3.11,3.11,0,0,0-.24-.81h.64c.09,0,.12,0,.12-.11V4.76a4.31,4.31,0,0,1-.9,1.32,4.71,4.71,0,0,0-.39-.82,4.43,4.43,0,0,0,1-1.47h-.89V3h1.64a10.58,10.58,0,0,0-1.39-.69l.54-.55.57.23a4.78,4.78,0,0,0,.45-.45H70.16V.87h2.31l.13,0,.54.34a5.19,5.19,0,0,1-1,1.18,3.7,3.7,0,0,1,.52.32L72.27,3h.35l.11,0,.52.17,0,.16A3.92,3.92,0,0,0,74.09,3a4.07,4.07,0,0,1-.51-.59l-.32.31a5.65,5.65,0,0,0-.69-.48A4.33,4.33,0,0,0,73.93.54l.8.22c-.08.17-.17.33-.27.5h2.11V2Zm.34,2.56,0,.32a4.28,4.28,0,0,1-.45,2,.78.78,0,0,1-.53.25,6.21,6.21,0,0,1-.8,0,1.89,1.89,0,0,0-.23-.79,6,6,0,0,0,.62,0,.31.31,0,0,0,.23-.08,2.24,2.24,0,0,0,.27-1.07h-.83a2.85,2.85,0,0,1-1.88,2,2.62,2.62,0,0,0-.5-.66,2.28,2.28,0,0,0,1.5-1.33H73V4.53h1c0-.21,0-.41.07-.64H75c0,.22,0,.43-.07.64ZM74.15,2a2.83,2.83,0,0,0,.59.61A2.32,2.32,0,0,0,75.21,2Z"/><path class="b8ad6522-1c60-4caa-848f-e7d50b228281" d="M30.23,13.72V17.6H29.4V11.19h2.76v2.53Zm0-1.93v.37h1.13v-.37Zm1.13,1.32v-.39H30.23v.39ZM33.45,16v1.47h-.74V16H32a2.3,2.3,0,0,1-.91,1.6,3.16,3.16,0,0,0-.55-.48A1.67,1.67,0,0,0,31.29,16h-.72V15.3h.75v-.54h-.65v-.67h3.46v.67h-.68v.54h.79V16Zm-.74-.69v-.54H32v.54Zm2.73,1.31c0,.43-.08.67-.34.8a2.44,2.44,0,0,1-1.17.17,3.33,3.33,0,0,0-.26-.85,7.13,7.13,0,0,0,.78,0c.11,0,.15,0,.15-.14V13.73h-2V11.19h2.81Zm-2-4.82v.37H34.6v-.37Zm1.16,1.33v-.4H33.44v.4Z"/><path class="b8ad6522-1c60-4caa-848f-e7d50b228281" d="M49.25,11.72v.8H44.12v1a8.72,8.72,0,0,1-.78,4.07,3.46,3.46,0,0,0-.75-.49,7.58,7.58,0,0,0,.65-3.59v-1.8h2.68a3.94,3.94,0,0,0-.25-.63l.85-.18a3.86,3.86,0,0,1,.36.81Zm-2.36,1.69h2.19v.76H46.89v.66h1.85v2.68h-.87v-.27H45.36v.27h-.84V14.83H46V12.74h.88Zm1,2.2H45.36v.87h2.51Z"/><path class="b8ad6522-1c60-4caa-848f-e7d50b228281" d="M58.63,15.84a7.79,7.79,0,0,1-1.57,1.48,7.31,7.31,0,0,0-.75-.56,5,5,0,0,0,1.46-1.23Zm1.43-.57v1.41c0,.43-.08.64-.4.78a3.35,3.35,0,0,1-1.24.13,3.18,3.18,0,0,0-.3-.83c.36,0,.8,0,.92,0s.16,0,.16-.12V15.34a10,10,0,0,0-2.2.27,7.5,7.5,0,0,0-.25-.77,3.36,3.36,0,0,0,1-.36,9.18,9.18,0,0,0,1.13-.59,5.73,5.73,0,0,0-1.55.18c0-.16-.16-.56-.25-.79a1.62,1.62,0,0,0,.6-.23,7.94,7.94,0,0,0,1.15-.73c-.69.14-1.38.25-2,.33a2.9,2.9,0,0,0-.24-.72,19.71,19.71,0,0,0,4.55-1.06l.63.67a14,14,0,0,1-2.06.61l.39.25c-.39.28-.8.55-1.22.8l1.24-.07a8.85,8.85,0,0,0,.76-.57l.63.57A15.47,15.47,0,0,1,59,14.6l2-.14c-.15-.17-.31-.35-.46-.5l.71-.36a14.41,14.41,0,0,1,1.4,1.61l-.73.44a4,4,0,0,0-.36-.5Zm1.08.17a9.13,9.13,0,0,1,1.6,1.31l-.75.5a9.87,9.87,0,0,0-1.55-1.36Z"/><path class="b8ad6522-1c60-4caa-848f-e7d50b228281" d="M70.72,15.72a7.73,7.73,0,0,1-.32,1.75,3.31,3.31,0,0,0-.63-.23,5.79,5.79,0,0,0,.29-1.62ZM72,15.3a2.21,2.21,0,0,0-.06-.32,7.79,7.79,0,0,0-1.83.41,5.43,5.43,0,0,0-.27-.76c.19-.05.34-.2.56-.47a6.71,6.71,0,0,0,.44-.57,2.9,2.9,0,0,0-.79.15,6.79,6.79,0,0,0-.26-.75c.14,0,.26-.17.4-.39A8.4,8.4,0,0,0,71,10.85l.76.33a11,11,0,0,1-1,1.78l.48,0c.19-.34.39-.72.55-1.08l.69.44A12.28,12.28,0,0,1,71,14.49l.72-.12a4.18,4.18,0,0,0-.21-.53l.57-.22a6.14,6.14,0,0,1,.5,1.43Zm-.53.25a14.83,14.83,0,0,1,.2,1.48l-.64.16c0-.41-.08-1-.15-1.48Zm.76-.2a10,10,0,0,1,.36,1.16l-.6.22a9.39,9.39,0,0,0-.33-1.19Zm3.45,1.37c.13,0,.15-.14.17-1a2.31,2.31,0,0,0,.72.31c-.07,1.1-.26,1.41-.8,1.41h-.52c-.65,0-.79-.25-.79-1V14.34l-.41.05c-.06,1.53-.25,2.6-1.42,3.24a2.21,2.21,0,0,0-.51-.67c.94-.48,1.09-1.27,1.13-2.47a2,2,0,0,0-.49.12,6.67,6.67,0,0,0-.28-.82c.17,0,.31-.22.49-.51a5.75,5.75,0,0,0,.43-.75h-.85v-.79h1.21c.12-.28.23-.57.33-.86l.92.24c-.09.21-.17.41-.27.62h1.69v.79H74.33a10.89,10.89,0,0,1-.68,1.13l1.51-.14L74.83,13l.69-.31a9.32,9.32,0,0,1,1,1.78l-.75.34a4.25,4.25,0,0,0-.22-.56l-.28,0v2.22c0,.22,0,.25.14.25Z"/></g></g></svg>