<svg xmlns="http://www.w3.org/2000/svg" viewBox="0 0 48 48"><title>alert_02</title><g class="nc-icon-wrapper" stroke-linecap="square" stroke-linejoin="miter" stroke-width="4" fill="#d57a66" stroke="#d57a66"><path data-cap="butt" d="M46,39c0-5-2.768-9.376-7-11V17A15,15,0,0,0,24,2h0A15,15,0,0,0,9,17V28A11.636,11.636,0,0,0,2,39" fill="none" stroke="#d57a66" stroke-miterlimit="10" stroke-linecap="butt"/><path d="M46,39c0,3.675-9.827,7-22,7S2,42.675,2,39s9.827-7,22-7S46,35.325,46,39Z" fill="none" stroke="#d57a66" stroke-miterlimit="10"/><path data-cap="butt" data-color="color-2" d="M29.659,37a6,6,0,0,1-11.318,0" fill="none" stroke-miterlimit="10" stroke-linecap="butt"/></g></svg>